<?xml version="1.0" encoding="utf-8"?>
<!-- Generator: Adobe Illustrator 18.0.0, SVG Export Plug-In . SVG Version: 6.00 Build 0)  -->
<!DOCTYPE svg PUBLIC "-//W3C//DTD SVG 1.1//EN" "http://www.w3.org/Graphics/SVG/1.1/DTD/svg11.dtd">
<svg version="1.1" id="Calque_1" xmlns="http://www.w3.org/2000/svg" xmlns:xlink="http://www.w3.org/1999/xlink" x="0px" y="0px"
	 viewBox="360 40 560 560" enable-background="new 360 40 560 560" xml:space="preserve">
<g>
	<path d="M560,80c-88.4,0-160,71.6-160,160s71.6,160,160,160s160-71.6,160-160S648.4,80,560,80z M560,380c-77.2,0-140-62.8-140-140
		s62.8-140,140-140s140,62.8,140,140S637.2,380,560,380z"/>
	<path d="M914.1,545.9l-180-180c-3.9-3.9-9-5.9-14.1-5.9c-0.1,0-0.2,0.1-0.3,0.1C744.9,326.6,760,285.1,760,240
		c0-110.5-89.5-200-200-200s-200,89.5-200,200c0,110.5,89.5,200,200,200c45.1,0,86.6-15.1,120.1-40.3c-0.1,5.2,1.8,10.5,5.8,14.5
		l180,180c3.9,3.9,9,5.9,14.1,5.9s10.2-2,14.1-5.9l20-20C922,566.3,922,553.7,914.1,545.9z M380,240c0-99.3,80.7-180,180-180
		s180,80.7,180,180c0,99.3-80.7,180-180,180S380,339.3,380,240z M880,580L700,400l20-20l180,180L880,580z"/>
</g>
</svg>
