<?xml version="1.0" standalone="no"?>
<!DOCTYPE svg PUBLIC "-//W3C//DTD SVG 20010904//EN"
 "http://www.w3.org/TR/2001/REC-SVG-20010904/DTD/svg10.dtd">
<svg version="1.0" xmlns="http://www.w3.org/2000/svg"
 width="1024.000000pt" height="1024.000000pt" viewBox="0 0 1024.000000 1024.000000"
 preserveAspectRatio="xMidYMid meet">
<metadata>
Created by potrace 1.11, written by Peter Selinger 2001-2013
</metadata>
<g transform="translate(0.000000,1024.000000) scale(0.100000,-0.100000)"
fill="#000000" stroke="none">
<path d="M738 9765 c-2 -3 -20 -7 -39 -10 -267 -38 -505 -232 -595 -487 -16
-45 -30 -104 -40 -166 -9 -52 -9 -7086 0 -7147 35 -249 169 -463 368 -588 79
-50 140 -75 236 -99 l87 -21 1835 -2 c1009 -1 1859 -5 1888 -9 128 -15 225
-51 299 -110 63 -51 98 -102 125 -186 17 -55 21 -95 23 -260 2 -107 3 -198 4
-202 0 -5 88 -8 194 -8 l192 0 1 173 c0 212 7 275 38 343 63 136 168 207 366
245 50 9 482 13 1905 14 1012 1 1860 5 1885 9 257 44 468 201 583 431 48 97
72 179 83 290 9 85 9 7024 0 7115 -8 79 -54 235 -84 279 -10 14 -24 40 -32 56
-25 50 -170 188 -245 231 -68 40 -191 88 -257 100 -58 11 -941 16 -947 6 -3
-6 -6 -803 -6 -1771 0 -969 -2 -1761 -3 -1761 -4 0 -1124 744 -1148 761 -6 5
-245 -148 -587 -376 -317 -212 -578 -385 -580 -385 -2 0 -4 791 -5 1758 0 966
-1 1763 -1 1770 -1 15 -562 17 -629 2 -121 -28 -255 -129 -310 -233 l-27 -52
-1 -4014 -2 -4015 -28 -23 c-30 -24 -38 -30 -66 -48 -8 -5 -34 -22 -57 -38
l-41 -27 -89 60 c-49 33 -93 65 -97 71 -3 6 -6 1809 -7 4005 0 3413 -2 4001
-14 4036 -30 86 -113 178 -211 231 -111 61 26 57 -2053 57 -1048 0 -1908 -2
-1911 -5z"/>
<path d="M6669 9743 c-2 -94 0 -2776 3 -2778 2 -2 32 16 68 39 36 24 169 109
295 189 127 80 270 175 319 210 l90 65 50 -37 c73 -54 280 -189 519 -339 l207
-131 0 1404 0 1405 -775 0 -775 0 -1 -27z"/>
</g>
</svg>
